<svg id="Laag_1" data-name="Laag 1" xmlns="http://www.w3.org/2000/svg" viewBox="0 0 97.86 97.86"><defs><style>.cls-1{fill:#686867;stroke:#686867;stroke-miterlimit:10;stroke-width:0.5px;}</style></defs><title>MarsWeatherLogo</title><path class="cls-1" d="M93.22,45.87A48.68,48.68,0,1,0,141.9,94.55,48.67,48.67,0,0,0,93.22,45.87ZM59.42,76.69A13.74,13.74,0,1,1,73.16,90.43,13.74,13.74,0,0,1,59.42,76.69Zm21.24,56.15a7.51,7.51,0,1,1,7.5-7.51A7.5,7.5,0,0,1,80.66,132.84Zm32.45-65.57a4.31,4.31,0,1,1,4.31,4.31A4.31,4.31,0,0,1,113.11,67.27Zm2.43,70.25c0-27.57,25.72-37.26,25.72-37.26a49.12,49.12,0,0,1-10.65,25A48.59,48.59,0,0,1,115.54,137.52Z" transform="translate(-44.29 -45.62)"/></svg>