<svg xmlns="http://www.w3.org/2000/svg" viewBox="0 0 96.04 48.74"><defs><style>.cls-1{fill:#696968;stroke:#686867;stroke-miterlimit:10;stroke-width:0.5px;}</style></defs><path class="cls-1" d="M121.29,95.14c5.63-17.45-11-21.53-11-21.53s-15.91-6.42-21.53,11c0,0-26.26-6.15-35.65,3,0,0,17.72,19.08,33.5,24.17a15.71,15.71,0,0,0,20.59,6.64c15.79,5.09,41.31,0,41.31,0C146.2,105.48,121.29,95.14,121.29,95.14Zm-17.55-1.31C92.79,90.3,89,84.67,89,84.67c5.54-17.2,21.22-10.88,21.22-10.88s16.42,4,10.88,21.23C121.08,95,114.69,97.36,103.74,93.83Z" transform="translate(-52.73 -72.2)"/></svg>